<?xml version="1.0" standalone="no"?>
<!DOCTYPE svg PUBLIC "-//W3C//DTD SVG 20010904//EN"
 "http://www.w3.org/TR/2001/REC-SVG-20010904/DTD/svg10.dtd">
<svg version="1.0" xmlns="http://www.w3.org/2000/svg"
 width="500.000000pt" height="500.000000pt" viewBox="0 0 500.000000 500.000000"
 preserveAspectRatio="xMidYMid meet">
<metadata>
Created by potrace 1.14, written by Peter Selinger 2001-2017
</metadata>
<g transform="translate(0.000000,500.000000) scale(0.100000,-0.100000)"
fill="#000000" stroke="none">
<path d="M2965 4686 c-76 -18 -172 -74 -244 -143 -61 -59 -67 -62 -115 -62
-61 0 -96 -10 -162 -45 -27 -14 -54 -26 -60 -26 -31 0 -298 -116 -359 -157
-41 -27 -137 -114 -235 -212 -145 -146 -170 -176 -209 -251 -34 -66 -37 -78
-17 -55 14 17 25 33 26 38 0 4 5 7 11 7 5 0 7 -4 4 -10 -3 -5 -1 -10 4 -10 6
0 11 6 11 14 0 35 88 153 132 177 15 8 15 3 -3 -46 -10 -30 -19 -62 -19 -71 0
-9 -13 -39 -28 -67 -28 -51 -52 -127 -70 -220 -7 -38 -6 -58 10 -104 21 -64
47 -97 99 -124 l36 -18 -18 36 c-22 43 -34 113 -24 143 6 19 10 14 26 -33 20
-60 63 -130 73 -120 3 4 6 -1 6 -10 0 -26 -100 -85 -171 -101 -34 -8 -67 -20
-72 -25 -7 -7 -7 -27 1 -63 14 -62 17 -141 7 -186 -7 -34 -36 -49 -74 -37 -30
9 -58 -25 -67 -82 -6 -46 -22 -89 -29 -81 -8 8 -28 147 -29 208 l-1 65 -35 -3
c-19 -1 -52 3 -73 10 -57 17 -72 -2 -69 -89 5 -168 5 -200 -2 -223 -10 -35
-14 -53 -15 -64 -1 -5 -4 -7 -7 -3 -3 3 -7 51 -8 107 l-3 102 -37 34 c-40 37
-48 39 -76 24 -24 -13 -29 -41 -36 -215 -3 -77 -7 -163 -9 -190 -1 -28 3 -85
9 -128 7 -42 10 -81 6 -87 -11 -18 -38 23 -54 81 -19 75 -45 151 -56 164 -9
11 -102 11 -120 0 -22 -13 -2 -175 29 -232 12 -23 61 -156 61 -167 0 -3 -27
-6 -59 -6 -78 0 -110 -25 -135 -107 -29 -95 -183 -401 -209 -414 -12 -7 -42
-33 -68 -58 -25 -25 -68 -67 -96 -92 -72 -65 -77 -84 -79 -346 -2 -208 -3
-225 -24 -257 -15 -26 -19 -44 -15 -68 5 -28 -2 -46 -46 -118 -28 -47 -71
-121 -94 -166 l-43 -81 3 -100 c3 -99 32 -236 62 -296 l14 -27 1884 0 1885 0
-6 27 c-13 59 -37 139 -50 171 -20 46 -18 47 17 7 17 -19 38 -35 48 -35 12 0
13 -2 3 -9 -10 -6 -5 -10 17 -14 51 -10 106 17 170 84 33 34 63 59 68 56 6 -4
0 20 -11 53 -11 32 -23 55 -26 50 -3 -5 -12 -5 -20 0 -26 17 -31 11 -15 -21 9
-16 15 -47 13 -67 -3 -36 -4 -37 -45 -40 -78 -6 -151 51 -169 132 -6 26 -2 34
25 57 17 14 44 32 59 40 15 7 55 33 90 56 l63 43 -2 -67 c-3 -93 2 -130 10
-78 l6 40 37 -57 c51 -78 106 -113 174 -112 123 3 199 43 243 129 23 44 27
109 9 152 -11 27 -12 27 -16 5 -3 -22 -5 -21 -44 18 l-41 41 35 32 c20 18 43
47 52 66 22 46 21 64 -1 24 -38 -68 -120 -100 -148 -58 -13 19 -12 20 24 21
49 2 80 19 92 51 14 37 4 40 -24 7 -36 -41 -57 -28 -57 35 0 101 30 140 192
245 71 46 139 114 164 163 10 21 32 59 47 85 18 30 31 68 34 102 5 47 2 61
-20 99 -14 24 -45 60 -69 81 -138 116 -216 177 -323 250 -38 27 -80 59 -93 72
-13 13 -26 24 -30 24 -4 0 -31 22 -59 50 -47 45 -52 55 -59 107 -5 32 -7 72
-6 89 1 22 -10 50 -37 92 -35 54 -111 201 -111 215 0 3 18 8 40 12 23 4 44 14
50 24 10 20 4 109 -10 147 -13 34 -14 31 23 49 59 28 131 90 160 137 25 39 30
59 32 120 1 40 5 83 9 95 6 18 0 26 -33 48 -28 17 -41 32 -41 48 0 64 -116
197 -189 217 -34 9 -41 15 -41 35 0 14 -4 25 -10 25 -5 0 -17 15 -26 33 -9 17
-24 41 -33 52 -10 11 -26 63 -36 115 -13 68 -33 126 -70 205 -29 61 -55 119
-59 130 -22 63 -123 219 -181 277 -56 57 -77 71 -157 103 -89 35 -94 39 -115
84 -72 151 -285 254 -448 217z m209 -41 c46 -22 103 -76 137 -130 46 -73 46
-74 -29 -53 -37 10 -75 18 -85 18 -11 0 -37 18 -58 39 -66 69 -124 65 -206
-12 -33 -31 -27 -31 -140 -12 -24 4 -43 11 -43 14 0 9 54 50 95 73 158 88 242
104 329 63z m-64 -145 c11 -7 -3 -10 -45 -10 -42 0 -56 3 -45 10 8 5 29 10 45
10 17 0 37 -5 45 -10z m-1482 -1706 c7 -14 10 -35 7 -47 -3 -12 1 -39 10 -59
21 -51 20 -114 -2 -122 -9 -4 -20 -1 -24 6 -16 25 -24 248 -10 248 4 0 13 -12
19 -26z m2538 -95 c0 -8 -4 -25 -8 -38 -6 -16 -5 -27 3 -31 15 -10 -6 -76 -28
-88 -19 -11 -59 -4 -74 14 -9 11 -8 14 7 14 22 0 84 36 84 48 0 5 -21 9 -47 9
-35 0 -60 7 -90 26 -68 43 -72 66 -7 44 34 -12 45 -12 89 4 56 19 70 19 71 -2z
m-113 -191 c23 -18 62 -94 108 -213 22 -55 43 -107 48 -115 4 -8 5 -24 1 -35
-6 -17 -12 -12 -42 35 -19 30 -47 78 -62 107 -25 51 -86 209 -86 225 0 12 14
10 33 -4z m724 -878 c77 -75 120 -180 96 -233 -9 -19 -10 -17 -16 18 -9 52
-80 191 -120 234 -40 42 -6 26 40 -19z m-356 -984 c39 -2 44 -6 57 -37 8 -19
15 -57 15 -86 1 -86 -36 -106 -97 -53 -42 37 -64 89 -70 170 l-5 63 29 -28
c20 -19 40 -27 71 -29z m-591 -481 c0 -5 -5 -3 -10 5 -5 8 -10 20 -10 25 0 6
5 3 10 -5 5 -8 10 -19 10 -25z"/>
<path d="M3850 4126 c0 -3 16 -26 35 -51 18 -25 44 -72 56 -105 12 -33 24 -59
26 -57 4 5 -21 76 -40 113 -16 32 -77 111 -77 100z"/>
<path d="M3965 3880 c3 -5 8 -10 11 -10 2 0 4 5 4 10 0 6 -5 10 -11 10 -5 0
-7 -4 -4 -10z"/>
<path d="M1512 3647 c-28 -74 -29 -130 -2 -157 11 -11 27 -20 35 -20 11 0 10
7 -6 35 -15 25 -20 49 -18 92 1 32 6 63 11 70 6 7 8 18 6 25 -3 7 -14 -13 -26
-45z"/>
<path d="M1592 3675 c0 -16 2 -22 5 -12 2 9 2 23 0 30 -3 6 -5 -1 -5 -18z"/>
<path d="M1601 3554 c0 -11 3 -14 6 -6 3 7 2 16 -1 19 -3 4 -6 -2 -5 -13z"/>
<path d="M4301 2145 c0 -5 13 -35 29 -65 16 -30 29 -50 29 -45 0 6 -13 35 -29
65 -16 30 -29 51 -29 45z"/>
<path d="M695 2111 c-3 -5 -2 -12 3 -15 5 -3 9 1 9 9 0 17 -3 19 -12 6z"/>
<path d="M662 2052 c-17 -11 -11 -51 8 -49 9 0 17 7 17 14 0 6 -5 9 -11 6 -6
-4 -5 0 2 9 14 18 3 31 -16 20z"/>
<path d="M606 1922 c-11 -11 -6 -23 7 -16 7 5 6 0 -3 -11 -8 -10 -10 -16 -3
-12 6 4 13 3 15 -3 1 -5 8 1 14 15 10 20 9 24 -7 28 -10 3 -20 2 -23 -1z"/>
<path d="M582 1849 c-14 -21 -8 -39 11 -38 9 0 9 2 0 6 -7 2 -13 9 -13 14 0 6
5 7 12 3 6 -4 8 -3 4 4 -3 5 -1 12 6 14 7 3 8 7 2 11 -5 3 -16 -3 -22 -14z"/>
<path d="M555 1800 c-3 -5 -1 -10 4 -10 6 0 11 5 11 10 0 6 -2 10 -4 10 -3 0
-8 -4 -11 -10z"/>
<path d="M525 1740 c-4 -6 -10 -8 -15 -5 -4 3 -10 -1 -13 -8 -3 -7 5 -13 19
-13 16 -1 21 2 17 14 -5 11 -3 13 7 7 9 -5 11 -4 6 3 -9 15 -13 15 -21 2z"/>
<path d="M470 1666 c0 -23 16 -27 17 -5 1 10 -2 19 -8 19 -5 0 -9 -6 -9 -14z"/>
<path d="M4195 230 c10 -11 20 -20 23 -20 3 0 -3 9 -13 20 -10 11 -20 20 -23
20 -3 0 3 -9 13 -20z"/>
</g>
</svg>
